<svg width="26" height="22" viewBox="0 0 26 22" fill="none" xmlns="http://www.w3.org/2000/svg">
<path d="M0.646482 10.6193C0.45122 10.8146 0.45122 11.1312 0.646482 11.3264L3.82846 14.5084C4.02372 14.7037 4.34031 14.7037 4.53557 14.5084C4.73083 14.3131 4.73083 13.9966 4.53557 13.8013L1.70714 10.9729L4.53557 8.14445C4.73083 7.94918 4.73083 7.6326 4.53557 7.43734C4.34031 7.24208 4.02372 7.24208 3.82846 7.43734L0.646482 10.6193ZM12.3345 10.9729V10.4729L1.00004 10.4729V10.9729V11.4729L12.3345 11.4729V10.9729Z" fill="black"/>
<path d="M8.89243 14.5208C8.65017 14.6529 8.55956 14.9575 8.70685 15.1908C9.53484 16.5028 10.7354 17.5435 12.16 18.1761C13.7373 18.8766 15.5014 19.0379 17.1795 18.6351C18.8576 18.2323 20.3563 17.2878 21.4438 15.9477C22.5313 14.6077 23.147 12.9467 23.1956 11.2215C23.2443 9.49644 22.7233 7.80334 21.7132 6.40407C20.703 5.0048 19.26 3.97731 17.6073 3.48048C15.9545 2.98366 14.1841 3.04518 12.5699 3.65554C11.1118 4.20684 9.85449 5.17817 8.95381 6.4413C8.7936 6.66599 8.86688 6.97514 9.1013 7.12074C9.33572 7.26635 9.64236 7.19307 9.80465 6.96988C10.5879 5.89266 11.6708 5.0639 12.9233 4.5903C14.3321 4.05762 15.8772 4.00393 17.3196 4.43752C18.762 4.87111 20.0213 5.76783 20.9029 6.98901C21.7845 8.21019 22.2392 9.6878 22.1967 11.1933C22.1542 12.6989 21.6169 14.1485 20.6678 15.318C19.7187 16.4875 18.4108 17.3118 16.9463 17.6633C15.4817 18.0149 13.9421 17.8741 12.5656 17.2628C11.3418 16.7193 10.3074 15.8308 9.58615 14.7111C9.4367 14.4791 9.13469 14.3886 8.89243 14.5208Z" fill="black"/>
</svg>
